<?xml version="1.0" encoding="UTF-8"?>
<svg xmlns="http://www.w3.org/2000/svg" id="Layer_1" data-name="Layer 1" viewBox="0 0 64 64"><title>Dusk Part 2</title><rect x="7" y="1" width="34" height="62" rx="6" ry="6" style="fill:#acb7d0;"/><path d="M7,53H41a0,0,0,0,1,0,0v4a6,6,0,0,1-6,6H13a6,6,0,0,1-6-6V53A0,0,0,0,1,7,53Z" style="fill:#acb7d0;"/><rect x="7" y="9" width="34" height="44" style="fill:#c5e4fa;"/><polygon points="23 53 41.38 34.63 41 20 8 53 23 53" style="fill:#e3f2ff;"/><polygon points="7 50 41 16 41 10 7 44 7 50" style="fill:#e3f2ff;"/><polygon points="7 40 38 9 33 9 7 35 7 40" style="fill:#e3f2ff;"/><polygon points="14.5 13 15.74 15.26 18 16.5 15.74 17.74 14.5 20 13.26 17.74 11 16.5 13.26 15.26 14.5 13" style="fill:#fff8f8;"/><polygon points="22.42 26.16 23.27 27.73 24.84 28.58 23.27 29.44 22.42 31 21.56 29.44 20 28.58 21.56 27.73 22.42 26.16" style="fill:#fff8f8;"/><polygon points="13.65 36.7 14.23 37.77 15.3 38.35 14.23 38.94 13.65 40 13.06 38.94 12 38.35 13.06 37.77 13.65 36.7" style="fill:#fff8f8;"/><path d="M59,41H44.31S40,48,37,48c1-3-.31-7-.31-7H29V15H59Z" style="fill:#f9e3ae;"/><path d="M12,44a1,1,0,0,0-1,1v2a1,1,0,0,0,2,0V45A1,1,0,0,0,12,44Z" style="fill:#8d6c9f;"/><path d="M17,44a1,1,0,0,0-1,1v2a1,1,0,0,0,2,0V45A1,1,0,0,0,17,44Z" style="fill:#8d6c9f;"/><path d="M22,44a1,1,0,0,0-1,1v2a1,1,0,0,0,2,0V45A1,1,0,0,0,22,44Z" style="fill:#8d6c9f;"/><path d="M27,44a1,1,0,0,0-1,1v2a1,1,0,0,0,2,0V45A1,1,0,0,0,27,44Z" style="fill:#8d6c9f;"/><path d="M32,44a1,1,0,0,0-1,1v2a1,1,0,0,0,2,0V45A1,1,0,0,0,32,44Z" style="fill:#8d6c9f;"/><circle cx="24" cy="58" r="2" style="fill:#8d6c9f;"/><path d="M25,6h4a1,1,0,0,0,0-2H25a1,1,0,0,0,0,2Z" style="fill:#8d6c9f;"/><path d="M19,6h2a1,1,0,0,0,0-2H19a1,1,0,0,0,0,2Z" style="fill:#8d6c9f;"/><path d="M57,14H42V7a7,7,0,0,0-7-7H13A7,7,0,0,0,6,7V57a7,7,0,0,0,7,7H35a7,7,0,0,0,7-7V46.33A10.34,10.34,0,0,0,44.76,42H57a3,3,0,0,0,3-3V17A3,3,0,0,0,57,14ZM13,2H35a5,5,0,0,1,5,5V8H8V7A5,5,0,0,1,13,2ZM35,62H13a5,5,0,0,1-5-5V54H40v3A5,5,0,0,1,35,62Zm5-10H8V10H40v4H31a3,3,0,0,0-3,3V39a3,3,0,0,0,3,3h5.21a12,12,0,0,1-1.14,5.63A1,1,0,0,0,36,49h.14A11.46,11.46,0,0,0,40,47.76ZM58,39a1,1,0,0,1-1,1H44a1,1,0,0,0-1,.83,7.87,7.87,0,0,1-5.46,5.8c1.26-4,.45-5.86.34-6.08A1,1,0,0,0,37,40H31a1,1,0,0,1-1-1V17a1,1,0,0,1,1-1H57a1,1,0,0,1,1,1Z" style="fill:#8d6c9f;"/><circle cx="36" cy="28" r="2" style="fill:#8d6c9f;"/><circle cx="44" cy="28" r="2" style="fill:#8d6c9f;"/><circle cx="52" cy="28" r="2" style="fill:#8d6c9f;"/></svg>